<svg width="70" height="70" fill="none" xmlns="http://www.w3.org/2000/svg"><path fill-rule="evenodd" clip-rule="evenodd" d="M27.345 24.552l-3.039 2.754c2.153 2.683 5.068 4.903 8.643 5.613v4.161h4.102v-3.877c3.905-.267 7.867-3.213 8.531-7.128.927-5.315-3.734-8.496-8.531-9.971V8.048c2.072.215 4.406 1.876 6.092 3.32l2.544-3.217c-2.357-2.189-6.19-4.174-8.636-4.238V.007h-4.102v4.136c-3.223.69-5.874 3.252-6.305 6.393-.392 4.509 1.715 6.747 6.305 8.341v9.812c-3.595-.967-5.604-4.137-5.604-4.137zm3.356-13.412c.179-1.2 1.005-2.18 2.248-2.701v5.989c-2.298-.752-2.416-2.159-2.248-3.288zm6.35 17.937c2.56-.37 4.493-2.065 4.493-3.723 0-3.345-4.006-4.695-4.456-4.847a2.033 2.033 0 01-.037-.013v8.583zm25.889 27.4V48.97l.907.545 2.11-3.517-14.482-8.69-14.483 8.69 2.11 3.517.908-.545v7.507H29.99V48.97l.908.545 2.11-3.517-14.483-8.69-14.482 8.69 2.11 3.517.908-.545v7.507H0v4.102h70v-4.102h-7.06zm-42.364 0v-5.01h-4.101v5.01h-5.313v-9.968l7.363-4.418 7.364 4.418v9.968h-5.313zm32.95-5.01v5.01h5.312v-9.968l-7.363-4.418-7.364 4.418v9.968h5.313v-5.01h4.101z" fill="#fff"/><path d="M0 65.891h70v4.102H0V65.89z" fill="#fff"/></svg>