<svg width="70" height="70" fill="none" xmlns="http://www.w3.org/2000/svg"><path fill-rule="evenodd" clip-rule="evenodd" d="M44.13 9.479H70v37.05H44.13V70H25.87V46.53H0V9.478h25.87v-4L35 0l9.13 5.478v4zM35 4.783L29.972 7.8v1.679h10.056v-1.68L35 4.784zm5.028 61.115H29.972V46.53h10.056v19.368zM4.102 42.428h61.796V13.58H4.102v28.848z" fill="#F78434"/><path fill-rule="evenodd" clip-rule="evenodd" d="M27.071 33.25l-1.506 3.954-3.833-1.46 6.369-16.72 3.405-.004 6.314 16.732-3.837 1.449-1.491-3.95h-5.42zm1.562-4.101h2.311l-1.15-3.048-1.16 3.048z" fill="#F78434"/><path d="M48.262 32.51h-4.789V18.844h-4.102v17.767h8.891V32.51zm12.182 0h-5.71v-2.675h5.29v-4.101h-5.29v-2.675h5.71v-4.102h-9.811v17.654h9.811V32.51zm-46.022-9.442c1.546-.686 3.87.982 5.114 2.102l2.544-3.217c-3.736-3.418-6.87-3.444-8.862-2.806-1.985.6-3.393 2.169-3.682 4.11-.278 1.864.523 3.656 2.089 4.677.271.177 2.143.977 4.389 1.82.835.307 1.687.859 1.576 1.482-.092.514-.808 1.274-2.054 1.274-2.014.117-3.507-1.525-4.624-2.874l-3.039 2.755c1.877 2.4 4.426 4.288 7.663 4.22 3.048 0 5.61-1.957 6.091-4.654.365-2.043-.545-4.706-4.194-6.052a72.429 72.429 0 01-3.658-1.476c-.37-.463-.23-1.003.647-1.361z" fill="#F78434"/></svg>