<svg width="70" height="70" fill="none" xmlns="http://www.w3.org/2000/svg"><circle cx="35" cy="35" r="35" fill="#58BEBF" fill-opacity=".2"/><path fill-rule="evenodd" clip-rule="evenodd" d="M29.425 40.104a5.538 5.538 0 015.532-5.532 5.538 5.538 0 015.532 5.532 5.538 5.538 0 01-5.532 5.532 5.538 5.538 0 01-5.532-5.532zm1.697.66l2.738 2.738 4.931-4.932-1.242-1.243-3.69 3.689-1.494-1.494-1.243 1.243z" fill="#58BEBF"/><path d="M40.577 23.423H38.38a3.423 3.423 0 00-6.846 0h-2.197v4.389h11.24v-4.389z" fill="#58BEBF"/><path fill-rule="evenodd" clip-rule="evenodd" d="M42.335 29.57v-6.147h3.539V50H24.04V23.423h3.54v6.146h14.755zM27.667 40.103c0 4.02 3.27 7.29 7.29 7.29s7.29-3.27 7.29-7.29-3.27-7.29-7.29-7.29-7.29 3.27-7.29 7.29z" fill="#58BEBF"/></svg>