<svg width="71" height="70" fill="none" xmlns="http://www.w3.org/2000/svg"><circle cx="35.5" cy="35" r="35" fill="#F78434"/><path d="M39.75 20h6.75v7.5h-6.75V20zM24 20h6.75v7.5H24V20z" fill="#fff"/><ellipse cx="35.625" cy="41" rx="4.125" ry="3.75" fill="#fff"/><path fill-rule="evenodd" clip-rule="evenodd" d="M26.25 41.375c0-4.763 4.03-8.625 9-8.625s9 3.862 9 8.625S40.22 50 35.25 50s-9-3.862-9-8.625zm3.143 0c0 3.095 2.627 5.613 5.857 5.613 3.23 0 5.857-2.518 5.857-5.613 0-3.095-2.627-5.613-5.857-5.613-3.23 0-5.857 2.518-5.857 5.613z" fill="#fff"/><path d="M31.348 31.39a9.915 9.915 0 012.402-.713L32.14 29H25.5l3.602 3.75c.689-.55 1.44-1.005 2.246-1.36zm5.402-.713a9.907 9.907 0 012.402.713c.806.355 1.557.81 2.246 1.36L45 29h-6.64l-1.61 1.677z" fill="#fff"/></svg>