<svg width="70" height="70" fill="none" xmlns="http://www.w3.org/2000/svg"><circle cx="35" cy="35" r="35" fill="#58BEBF" fill-opacity=".2"/><path d="M51.262 30.858h-7.384a3.972 3.972 0 00-3.971 3.972v11.193a3.972 3.972 0 003.971 3.972h8.286l1.4-16.634a2.31 2.31 0 00-2.302-2.503zM35.935 20.005h-1.843l-.712 8.828a4.828 4.828 0 01-4.812 4.439h-1.384V47.58h4.691v.102a2.309 2.309 0 002.31 2.312h5.05a6.086 6.086 0 01-1.471-3.972V34.83a6.1 6.1 0 012.143-4.644v-6.21a3.972 3.972 0 00-3.972-3.97zM17 31.837h8.04v17.179H17V31.837z" fill="#58BEBF"/></svg>