<svg width="25" height="20" fill="none" xmlns="http://www.w3.org/2000/svg"><mask id="mask0_0_25" style="mask-type:alpha" maskUnits="userSpaceOnUse" x="0" y="0" width="25" height="20"><path fill-rule="evenodd" clip-rule="evenodd" d="M0 .043h24.46v19.919H0V.043z" fill="#fff"/></mask><g mask="url(#mask0_0_25)"><path fill-rule="evenodd" clip-rule="evenodd" d="M7.66 19.962c9.249 0 14.307-7.663 14.307-14.307 0-.218-.005-.434-.015-.65A10.226 10.226 0 0024.461 2.4c-.901.4-1.871.67-2.888.792a5.046 5.046 0 002.211-2.78c-.971.576-2.047.994-3.193 1.22a5.029 5.029 0 00-8.569 4.586A14.276 14.276 0 011.658.964 5.017 5.017 0 00.977 3.49c0 1.745.888 3.285 2.237 4.186a4.989 4.989 0 01-2.277-.629v.064a5.03 5.03 0 004.034 4.93 5.047 5.047 0 01-2.271.086 5.034 5.034 0 004.697 3.492 10.088 10.088 0 01-6.245 2.153c-.406 0-.806-.024-1.2-.07a14.235 14.235 0 007.708 2.259" fill="#1DA1F2"/></g></svg>